<?xml version="1.0" encoding="UTF-8"?>
<svg width="22px" height="20px" viewBox="0 0 22 20" version="1.1" xmlns="http://www.w3.org/2000/svg" xmlns:xlink="http://www.w3.org/1999/xlink">
    <!-- Generator: sketchtool 52 (66869) - http://www.bohemiancoding.com/sketch -->
    <title>98C865C1-0D84-4CD5-BBAA-651CA55DE0B1</title>
    <desc>Created with sketchtool.</desc>
    <g id="Page-1" stroke="none" stroke-width="1" fill="none" fill-rule="evenodd">
        <g id="CSC-Etusivu" transform="translate(-1114.000000, -27.000000)">
            <g id="Group-15" transform="translate(702.000000, 25.000000)">
                <g id="Group-14" transform="translate(410.000000, 0.000000)">
                    <g id="ic_asetukset">
                        <g id="Icon-24px">
                            <polygon id="Shape" points="0 0 26 0 26 24 0 24"></polygon>
                            <path d="M21.0491667,12.98 C21.0925,12.66 21.125,12.34 21.125,12 C21.125,11.66 21.0925,11.34 21.0491667,11.02 L23.335,9.37 C23.5408333,9.22 23.595,8.95 23.465,8.73 L21.2983333,5.27 C21.1683333,5.05 20.8758333,4.97 20.6375,5.05 L17.94,6.05 C17.3766667,5.65 16.77,5.32 16.1091667,5.07 L15.6975,2.42 C15.665,2.18 15.4375,2 15.1666667,2 L10.8333333,2 C10.5625,2 10.335,2.18 10.3025,2.42 L9.89083333,5.07 C9.23,5.32 8.62333333,5.66 8.06,6.05 L5.3625,5.05 C5.11333333,4.96 4.83166667,5.05 4.70166667,5.27 L2.535,8.73 C2.39416667,8.95 2.45916667,9.22 2.665,9.37 L4.95083333,11.02 C4.9075,11.34 4.875,11.67 4.875,12 C4.875,12.33 4.9075,12.66 4.95083333,12.98 L2.665,14.63 C2.45916667,14.78 2.405,15.05 2.535,15.27 L4.70166667,18.73 C4.83166667,18.95 5.12416667,19.03 5.3625,18.95 L8.06,17.95 C8.62333333,18.35 9.23,18.68 9.89083333,18.93 L10.3025,21.58 C10.335,21.82 10.5625,22 10.8333333,22 L15.1666667,22 C15.4375,22 15.665,21.82 15.6975,21.58 L16.1091667,18.93 C16.77,18.68 17.3766667,18.34 17.94,17.95 L20.6375,18.95 C20.8866667,19.04 21.1683333,18.95 21.2983333,18.73 L23.465,15.27 C23.595,15.05 23.5408333,14.78 23.335,14.63 L21.0491667,12.98 L21.0491667,12.98 Z M13,15.5 C10.9091667,15.5 9.20833333,13.93 9.20833333,12 C9.20833333,10.07 10.9091667,8.5 13,8.5 C15.0908333,8.5 16.7916667,10.07 16.7916667,12 C16.7916667,13.93 15.0908333,15.5 13,15.5 L13,15.5 Z" id="Shape" fill="#FFFFFF"></path>
                        </g>
                    </g>
                </g>
            </g>
        </g>
    </g>
</svg>