<?xml version="1.0" encoding="UTF-8"?>
<svg width="68px" height="61px" viewBox="0 0 68 61" version="1.1" xmlns="http://www.w3.org/2000/svg" xmlns:xlink="http://www.w3.org/1999/xlink">
    <!-- Generator: sketchtool 53.2 (72643) - https://sketchapp.com -->
    <title>47031CFA-3ECA-49A9-830C-BFA5C4CE8E48</title>
    <desc>Created with sketchtool.</desc>
    <g id="Page-1" stroke="none" stroke-width="1" fill="none" fill-rule="evenodd">
        <g id="CSC-Syöttö-01" transform="translate(-392.000000, -414.000000)">
            <g id="Group-4" transform="translate(386.000000, 408.000000)">
                <g id="ic_camera">
                    <g id="Icon-24px">
                        <circle id="Oval" fill="#C0C0C0" cx="40" cy="40" r="10.6666667"></circle>
                        <path d="M30,6.66666667 L23.9,13.3333333 L13.3333333,13.3333333 C9.66666667,13.3333333 6.66666667,16.3333333 6.66666667,20 L6.66666667,60 C6.66666667,63.6666667 9.66666667,66.6666667 13.3333333,66.6666667 L66.6666667,66.6666667 C70.3333333,66.6666667 73.3333333,63.6666667 73.3333333,60 L73.3333333,20 C73.3333333,16.3333333 70.3333333,13.3333333 66.6666667,13.3333333 L56.1,13.3333333 L50,6.66666667 L30,6.66666667 L30,6.66666667 Z M40,56.6666667 C30.8,56.6666667 23.3333333,49.2 23.3333333,40 C23.3333333,30.8 30.8,23.3333333 40,23.3333333 C49.2,23.3333333 56.6666667,30.8 56.6666667,40 C56.6666667,49.2 49.2,56.6666667 40,56.6666667 L40,56.6666667 Z" id="Shape" fill="#C0C0C0"></path>
                        <polygon id="Shape" points="0 0 80 0 80 80 0 80"></polygon>
                    </g>
                </g>
            </g>
        </g>
    </g>
</svg>