<?xml version="1.0" encoding="UTF-8" standalone="no"?>
<!DOCTYPE svg PUBLIC "-//W3C//DTD SVG 1.1//EN" "http://www.w3.org/Graphics/SVG/1.1/DTD/svg11.dtd">
<svg width="100%" height="100%" viewBox="0 0 20 20" version="1.1" xmlns="http://www.w3.org/2000/svg" xmlns:xlink="http://www.w3.org/1999/xlink" xml:space="preserve" xmlns:serif="http://www.serif.com/" style="fill-rule:evenodd;clip-rule:evenodd;stroke-linejoin:round;stroke-miterlimit:2;">
    <g transform="matrix(0.833333,0,0,0.866667,0,-0.833333)">
        <g id="Symbols">
            <g id="Materiaalityyppi-Simulaatio" serif:id="Materiaalityyppi/Simulaatio">
                <g id="ic_simulaatio_black">
                    <g id="Group-8" transform="matrix(1,0,0,1,0,4)">
                        <g id="Group-3" transform="matrix(1,0,0,1,0,0.3985)">
                            <path id="Fill-1" d="M16.723,0.602L7.278,0.602C3.276,0.602 0,3.877 0,7.88L0,10.541C0,12.995 2.006,14.999 4.458,14.999L6.761,14.999C7.611,14.999 8.399,14.617 8.977,13.993C9.598,13.323 10.716,12.875 12,12.875C13.285,12.875 14.403,13.323 15.025,13.993C15.603,14.617 16.39,14.999 17.241,14.999L19.542,14.999C21.994,14.999 24,12.995 24,10.541L24,7.88C24,3.877 20.725,0.602 16.723,0.602"/>
                        </g>
                        <path id="Fill-4" d="M3.203,6.559C3.007,6.559 2.809,6.484 2.66,6.334C2.36,6.034 2.36,5.548 2.66,5.248L4.015,3.894C4.314,3.594 4.8,3.594 5.1,3.894C5.4,4.194 5.4,4.68 5.1,4.98L3.746,6.334C3.596,6.484 3.399,6.559 3.203,6.559" style="fill:white;"/>
                        <path id="Fill-6" d="M4.542,9.021C4.346,9.021 4.149,8.946 3.999,8.796C3.699,8.497 3.699,8.01 3.999,7.71L6.476,5.232C6.775,4.933 7.262,4.933 7.562,5.232C7.861,5.532 7.861,6.019 7.562,6.318L5.085,8.796C4.936,8.946 4.739,9.021 4.542,9.021" style="fill:white;"/>
                    </g>
                    <rect id="Rectangle" x="0" y="0" width="24" height="24" style="fill:none;"/>
                </g>
            </g>
        </g>
    </g>
</svg>
