<?xml version="1.0" encoding="UTF-8"?>
<svg width="21px" height="16px" viewBox="0 0 21 16" version="1.1" xmlns="http://www.w3.org/2000/svg" xmlns:xlink="http://www.w3.org/1999/xlink">
    <!-- Generator: Sketch 53 (72520) - https://sketchapp.com -->
    <title>ic_sanasto_black</title>
    <desc>Created with Sketch.</desc>
    <g id="Symbols" stroke="none" stroke-width="1" fill="none" fill-rule="evenodd">
        <g id="Materiaalityyppi/Sanasto" transform="translate(-1.000000, -4.000000)">
            <g id="ic_sanasto_black">
                <g id="Icon-24px">
                    <path d="M0,0 L24,0 L24,24 L0,24 L0,0 L0,0 Z M0,0 L24,0 L24,24 L0,24 L0,0 L0,0 Z M0.75,0.75 L23.25,0.75 L23.25,23.25 L0.75,23.25 L0.75,0.75 Z" id="Shape"></path>
                    <path d="M6.1,4.27 L1.6,15.73 L3.44,15.73 L4.36,13.28 L9.47,13.28 L10.39,15.73 L12.23,15.73 L7.74,4.27 L6.1,4.27 L6.1,4.27 Z M4.97,11.64 L6.91,6.46 L8.85,11.64 L4.97,11.64 L4.97,11.64 Z M15.73,18.14 L21.85,18.14 L21.85,19.73 L13.32,19.73 L13.32,18.44 L19.24,9.88 L13.36,9.88 L13.36,8.28 L21.66,8.28 L21.66,9.54 L15.73,18.14 L15.73,18.14 Z" id="Shape" fill="#000000"></path>
                </g>
            </g>
        </g>
    </g>
</svg>