<?xml version="1.0" encoding="UTF-8" standalone="no"?>
<!DOCTYPE svg PUBLIC "-//W3C//DTD SVG 1.1//EN" "http://www.w3.org/Graphics/SVG/1.1/DTD/svg11.dtd">
<svg width="100%" height="100%" viewBox="0 0 20 20" version="1.1" xmlns="http://www.w3.org/2000/svg" xmlns:xlink="http://www.w3.org/1999/xlink" xml:space="preserve" xmlns:serif="http://www.serif.com/" style="fill-rule:evenodd;clip-rule:evenodd;stroke-linejoin:round;stroke-miterlimit:2;">
    <g transform="matrix(0.909091,0,0,0.916667,-0.909091,-1)">
        <g id="Symbols">
            <g id="Materiaalityyppi-Peli" serif:id="Materiaalityyppi/Peli">
                <g id="Hardware-ic_videogame_asset" serif:id="Hardware/ic_videogame_asset">
                    <g id="ic_videogame_asset">
                        <path id="Bounds" d="M0,0L0,24L24,24L24,0L0,0Z" style="fill:none;"/>
                        <path id="Icon" d="M21,6L3,6C1.9,6 1,6.9 1,8L1,16C1,17.1 1.9,18 3,18L21,18C22.1,18 23,17.1 23,16L23,8C23,6.9 22.1,6 21,6ZM11,13L8,13L8,16L6,16L6,13L3,13L3,11L6,11L6,8L8,8L8,11L11,11L11,13ZM15.5,15C14.67,15 14,14.33 14,13.5C14,12.67 14.67,12 15.5,12C16.33,12 17,12.67 17,13.5C17,14.33 16.33,15 15.5,15ZM19.5,12C18.67,12 18,11.33 18,10.5C18,9.67 18.67,9 19.5,9C20.33,9 21,9.67 21,10.5C21,11.33 20.33,12 19.5,12Z"/>
                    </g>
                </g>
            </g>
        </g>
    </g>
</svg>
