<?xml version="1.0" encoding="UTF-8" standalone="no"?>
<!DOCTYPE svg PUBLIC "-//W3C//DTD SVG 1.1//EN" "http://www.w3.org/Graphics/SVG/1.1/DTD/svg11.dtd">
<svg width="100%" height="100%" viewBox="0 0 20 20" version="1.1" xmlns="http://www.w3.org/2000/svg" xmlns:xlink="http://www.w3.org/1999/xlink" xml:space="preserve" xmlns:serif="http://www.serif.com/" style="fill-rule:evenodd;clip-rule:evenodd;stroke-linejoin:round;stroke-miterlimit:2;">
    <g transform="matrix(1.05263,0,0,1.07143,-3.15789,-2.85714)">
        <g id="Symbols">
            <g id="Materiaalityyppi-Datasetti" serif:id="Materiaalityyppi/Datasetti">
                <g id="ic_datasetti_black">
                    <g id="Icon-24px">
                        <path id="Shape" d="M3,9L7,9L7,5L3,5L3,9ZM3,14L7,14L7,10L3,10L3,14ZM8,14L12,14L12,10L8,10L8,14ZM13,14L17,14L17,10L13,10L13,14ZM8,9L12,9L12,5L8,5L8,9ZM13,5L13,9L17,9L17,5L13,5ZM18,14L22,14L22,10L18,10L18,14ZM3,19L7,19L7,15L3,15L3,19ZM8,19L12,19L12,15L8,15L8,19ZM13,19L17,19L17,15L13,15L13,19ZM18,19L22,19L22,15L18,15L18,19ZM18,5L18,9L22,9L22,5L18,5Z"/>
                        <path id="Shape1" serif:id="Shape" d="M0,0L24,0L24,24L0,24L0,0Z" style="fill:none;"/>
                    </g>
                </g>
            </g>
        </g>
    </g>
</svg>
