<?xml version="1.0" encoding="UTF-8"?>
<svg width="22px" height="16px" viewBox="0 0 22 16" version="1.1" xmlns="http://www.w3.org/2000/svg" xmlns:xlink="http://www.w3.org/1999/xlink">
    <!-- Generator: Sketch 53 (72520) - https://sketchapp.com -->
    <title>ic_harjoitus_black</title>
    <desc>Created with Sketch.</desc>
    <defs>
        <polygon id="path-1" points="0 0.0004 21.9996 0.0004 21.9996 15.8114 0 15.8114"></polygon>
    </defs>
    <g id="Symbols" stroke="none" stroke-width="1" fill="none" fill-rule="evenodd">
        <g id="Materiaalityyppi/Wiki" transform="translate(-1.000000, -5.000000)">
            <g id="ic_harjoitus_black">
                <rect id="Rectangle" x="0" y="0" width="24" height="24"></rect>
                <g id="Group-3" transform="translate(1.000000, 5.000000)">
                    <mask id="mask-2" fill="white">
                        <use xlink:href="#path-1"></use>
                    </mask>
                    <g id="Clip-2"></g>
                    <path d="M6.7236,-0.0001 L6.7236,0.5579 C6.1736,0.6089 5.7966,0.6869 5.5916,0.7919 C5.3876,0.8959 5.2856,1.1349 5.2856,1.5069 C5.2856,1.6039 5.2966,1.7169 5.3186,1.8469 C5.3406,1.9779 5.3746,2.1129 5.4186,2.2549 L8.2176,10.2499 L8.2666,10.2499 L10.8746,3.5599 C10.8906,3.5219 10.7826,3.1829 10.5556,2.5399 C10.3286,1.8959 10.1686,1.4999 10.0796,1.3499 C9.9096,1.0829 9.7216,0.8929 9.5166,0.7809 C9.3126,0.6689 8.9426,0.5949 8.4076,0.5579 L8.4076,-0.0001 L15.5436,-0.0001 L15.5436,0.5579 C14.8896,0.6089 14.4526,0.6799 14.2336,0.7699 C14.0146,0.8589 13.9046,1.0599 13.9046,1.3729 C13.9046,1.4479 13.9286,1.5909 13.9776,1.8029 C14.0256,2.0149 14.1096,2.3069 14.2286,2.6789 L16.8506,10.0379 L16.7536,10.0379 L19.2456,2.5229 C19.2896,2.3889 19.3276,2.2459 19.3576,2.0929 C19.3866,1.9399 19.4026,1.7709 19.4026,1.5849 C19.4026,1.1609 19.2426,0.8769 18.9226,0.7359 C18.7296,0.6469 18.3616,0.5869 17.8186,0.5579 L17.8186,-0.0001 L21.9996,-0.0001 L21.9996,0.5579 C21.6506,0.6089 21.3786,0.6989 21.1856,0.8249 C20.8516,1.0569 20.5916,1.4539 20.4056,2.0199 L15.8336,15.8119 L15.2316,15.8119 L11.3956,5.0909 L11.2396,5.0909 L7.0586,15.8119 L6.4226,15.8119 L1.5946,2.0199 C1.3866,1.4259 1.1786,1.0489 0.9696,0.8869 C0.7616,0.7269 0.4386,0.6159 -0.0004,0.5579 L-0.0004,-0.0001 L6.7236,-0.0001 Z" id="Fill-1" fill="#000000" mask="url(#mask-2)"></path>
                </g>
            </g>
        </g>
    </g>
</svg>