<svg id="Layer_1" data-name="Layer 1" xmlns="http://www.w3.org/2000/svg" xmlns:xlink="http://www.w3.org/1999/xlink" viewBox="0 0 24 24"><defs><style>.cls-1{fill:none;clip-rule:evenodd;}.cls-2{clip-path:url(#clip-path);}.cls-3{clip-path:url(#clip-path-2);}</style><clipPath id="clip-path"><path class="cls-1" d="M-156,8h-4V4h4Zm0,6h-4V10h4Zm0,6h-4V16h4Zm-6-12h-4V4h4Zm0,6h-4V10h4Zm0,6h-4V16h4Zm-6-12h-4V4h4Zm0,6h-4V10h4Zm0,6h-4V16h4Zm12-18h-16a2,2,0,0,0-2,2V20a2,2,0,0,0,2,2h16a2,2,0,0,0,2-2V4A2,2,0,0,0-156,2Z"/></clipPath><clipPath id="clip-path-2"><path class="cls-1" d="M10,17,6,13l1.41-1.41L10,14.17l6.59-6.59L18,9ZM12,3a1,1,0,1,1-1,1A1,1,0,0,1,12,3Zm7,0H14.82A3,3,0,0,0,9.18,3H5A2,2,0,0,0,3,5V19a2,2,0,0,0,2,2H19a2,2,0,0,0,2-2V5A2,2,0,0,0,19,3Z"/></clipPath></defs><title>ic_harjoitus_black</title><g class="cls-3"><rect x="-2" y="-4" width="28" height="30"/></g></svg>