<?xml version="1.0" encoding="UTF-8" standalone="no"?>
<!DOCTYPE svg PUBLIC "-//W3C//DTD SVG 1.1//EN" "http://www.w3.org/Graphics/SVG/1.1/DTD/svg11.dtd">
<svg width="100%" height="100%" viewBox="0 0 20 20" version="1.1" xmlns="http://www.w3.org/2000/svg" xmlns:xlink="http://www.w3.org/1999/xlink" xml:space="preserve" xmlns:serif="http://www.serif.com/" style="fill-rule:evenodd;clip-rule:evenodd;stroke-linejoin:round;stroke-miterlimit:2;">
    <g transform="matrix(0.833333,0,0,0.833333,0,0)">
        <clipPath id="_clip1">
            <path d="M10,17L6,13L7.41,11.59L10,14.17L16.59,7.58L18,9L10,17ZM12,3C12.549,3 13,3.451 13,4C13,4.549 12.549,5 12,5C11.451,5 11,4.549 11,4C11,3.451 11.451,3 12,3ZM19,3L14.82,3C14.39,1.816 13.259,1.024 12,1.024C10.741,1.024 9.61,1.816 9.18,3L5,3C3.903,3 3,3.903 3,5L3,19C3,20.097 3.903,21 5,21L19,21C20.097,21 21,20.097 21,19L21,5C21,3.903 20.097,3 19,3Z"/>
        </clipPath>
        <g clip-path="url(#_clip1)">
            <rect x="-2" y="-4" width="28" height="30"/>
        </g>
    </g>
</svg>
