<?xml version="1.0" encoding="UTF-8" standalone="no"?>
<!DOCTYPE svg PUBLIC "-//W3C//DTD SVG 1.1//EN" "http://www.w3.org/Graphics/SVG/1.1/DTD/svg11.dtd">
<svg width="100%" height="100%" viewBox="0 0 20 20" version="1.1" xmlns="http://www.w3.org/2000/svg" xmlns:xlink="http://www.w3.org/1999/xlink" xml:space="preserve" xmlns:serif="http://www.serif.com/" style="fill-rule:evenodd;clip-rule:evenodd;stroke-linejoin:round;stroke-miterlimit:2;">
    <g transform="matrix(1.11111,0,0,1.11111,-3.33333,-3.33333)">
        <g id="Symbols">
            <g id="Materiaalityyppi-Teksti" serif:id="Materiaalityyppi/Teksti">
                <g id="ic_teksti_black">
                    <g id="Icon-24px">
                        <path id="Shape" d="M15,15L3,15L3,17L15,17L15,15ZM15,7L3,7L3,9L15,9L15,7ZM3,13L21,13L21,11L3,11L3,13ZM3,21L21,21L21,19L3,19L3,21ZM3,3L3,5L21,5L21,3L3,3Z"/>
                        <path id="Shape1" serif:id="Shape" d="M0,0L24,0L24,24L0,24L0,0Z" style="fill:none;"/>
                    </g>
                </g>
            </g>
        </g>
    </g>
</svg>
