<?xml version="1.0" encoding="UTF-8"?>
<svg width="18px" height="18px" viewBox="0 0 18 18" version="1.1" xmlns="http://www.w3.org/2000/svg" xmlns:xlink="http://www.w3.org/1999/xlink">
    <!-- Generator: Sketch 53 (72520) - https://sketchapp.com -->
    <title>ic_teksti_black</title>
    <desc>Created with Sketch.</desc>
    <g id="Symbols" stroke="none" stroke-width="1" fill="none" fill-rule="evenodd">
        <g id="Materiaalityyppi/Teksti" transform="translate(-3.000000, -3.000000)">
            <g id="ic_teksti_black">
                <g id="Icon-24px">
                    <path d="M15,15 L3,15 L3,17 L15,17 L15,15 L15,15 Z M15,7 L3,7 L3,9 L15,9 L15,7 L15,7 Z M3,13 L21,13 L21,11 L3,11 L3,13 L3,13 Z M3,21 L21,21 L21,19 L3,19 L3,21 L3,21 Z M3,3 L3,5 L21,5 L21,3 L3,3 L3,3 Z" id="Shape" fill="#000000"></path>
                    <polygon id="Shape" points="0 0 24 0 24 24 0 24"></polygon>
                </g>
            </g>
        </g>
    </g>
</svg>