<?xml version="1.0" encoding="UTF-8" standalone="no"?>
<!DOCTYPE svg PUBLIC "-//W3C//DTD SVG 1.1//EN" "http://www.w3.org/Graphics/SVG/1.1/DTD/svg11.dtd">
<svg width="100%" height="100%" viewBox="0 0 20 20" version="1.1" xmlns="http://www.w3.org/2000/svg" xmlns:xlink="http://www.w3.org/1999/xlink" xml:space="preserve" xmlns:serif="http://www.serif.com/" style="fill-rule:evenodd;clip-rule:evenodd;stroke-linejoin:round;stroke-miterlimit:2;">
    <g transform="matrix(0.909091,0,0,0.9375,-0.909091,-2.1875)">
        <g id="Symbols">
            <g id="Materiaalityyppi-Wiki" serif:id="Materiaalityyppi/Wiki">
                <g id="ic_harjoitus_black">
                    <rect id="Rectangle" x="0" y="0" width="24" height="24" style="fill:none;"/>
                    <g id="Group-3" transform="matrix(1,0,0,1,1,5)">
                        <path id="Fill-1" d="M6.724,0L6.724,0.558C6.174,0.609 5.797,0.687 5.592,0.792C5.388,0.896 5.286,1.135 5.286,1.507C5.286,1.604 5.297,1.717 5.319,1.847C5.341,1.978 5.375,2.113 5.419,2.255L8.218,10.25L8.267,10.25L10.875,3.56C10.891,3.522 10.783,3.183 10.556,2.54C10.329,1.896 10.169,1.5 10.08,1.35C9.91,1.083 9.722,0.893 9.517,0.781C9.313,0.669 8.943,0.595 8.408,0.558L8.408,0L15.544,0L15.544,0.558C14.89,0.609 14.453,0.68 14.234,0.77C14.015,0.859 13.905,1.06 13.905,1.373C13.905,1.448 13.929,1.591 13.978,1.803C14.026,2.015 14.11,2.307 14.229,2.679L16.851,10.038L16.754,10.038L19.246,2.523C19.29,2.389 19.328,2.246 19.358,2.093C19.387,1.94 19.403,1.771 19.403,1.585C19.403,1.161 19.243,0.877 18.923,0.736C18.73,0.647 18.362,0.587 17.819,0.558L17.819,0L22,0L22,0.558C21.651,0.609 21.379,0.699 21.186,0.825C20.852,1.057 20.592,1.454 20.406,2.02L15.834,15.812L15.232,15.812L11.396,5.091L11.24,5.091L7.059,15.812L6.423,15.812L1.595,2.02C1.387,1.426 1.179,1.049 0.97,0.887C0.762,0.727 0.439,0.616 0,0.558L0,0L6.724,0Z"/>
                    </g>
                </g>
            </g>
        </g>
    </g>
</svg>
