<?xml version="1.0" encoding="UTF-8"?>
<svg width="20px" height="20px" viewBox="0 0 20 20" version="1.1" xmlns="http://www.w3.org/2000/svg" xmlns:xlink="http://www.w3.org/1999/xlink">
    <!-- Generator: Sketch 53 (72520) - https://sketchapp.com -->
    <title>ic_blogi_black</title>
    <desc>Created with Sketch.</desc>
    <g id="Symbols" stroke="none" stroke-width="1" fill="none" fill-rule="evenodd">
        <g id="Materiaalityyppi/Blogi" transform="translate(-2.000000, -2.000000)">
            <g id="ic_blogi_black">
                <rect id="Rectangle" x="0" y="0" width="24" height="24"></rect>
                <g id="Group-5" transform="translate(2.000000, 2.000000)">
                    <path d="M20,10 C20,4.477 15.522,0 10,0 C4.478,0 0,4.477 0,10 C0,15.523 4.478,20 10,20 C15.522,20 20,15.523 20,10" id="Fill-1" fill="#000000"></path>
                    <path d="M9.2861,13.834 C9.3841,13.905 9.4791,13.975 9.5741,14.041 C9.6681,14.107 9.7691,14.166 9.8771,14.217 C9.9841,14.269 10.1001,14.309 10.2251,14.34 C10.3501,14.371 10.4921,14.386 10.6511,14.386 C10.9371,14.386 11.1991,14.306 11.4371,14.145 C11.6751,13.983 11.8781,13.761 12.0471,13.478 C12.2161,13.194 12.3461,12.859 12.4371,12.473 C12.5291,12.087 12.5761,11.671 12.5761,11.227 C12.5761,10.895 12.5281,10.582 12.4331,10.288 C12.3391,9.994 12.2091,9.735 12.0431,9.513 C11.8771,9.291 11.6821,9.116 11.4601,8.988 C11.2371,8.86 11.0011,8.796 10.7511,8.796 C10.4951,8.796 10.2351,8.861 9.9731,8.992 C9.7091,9.122 9.4801,9.287 9.2861,9.486 L9.2861,13.834 Z M7.2001,4.226 L8.7961,3.398 L9.2861,3.398 L9.2861,7.945 C9.7111,7.746 10.1081,7.582 10.4781,7.454 C10.8491,7.327 11.1871,7.263 11.4941,7.263 C11.9601,7.263 12.3901,7.356 12.7861,7.542 C13.1821,7.729 13.5241,7.982 13.8101,8.302 C14.0971,8.621 14.3211,8.993 14.4851,9.417 C14.6481,9.841 14.7301,10.292 14.7301,10.767 C14.7301,11.186 14.6781,11.591 14.5731,11.982 C14.4691,12.373 14.3211,12.74 14.1321,13.083 C13.9431,13.425 13.7161,13.739 13.4501,14.025 C13.1831,14.312 12.8891,14.556 12.5641,14.758 C12.2391,14.96 11.8901,15.117 11.5141,15.23 C11.1381,15.342 10.7481,15.398 10.3451,15.398 C9.7571,15.398 9.1941,15.319 8.6571,15.16 C8.1211,15.002 7.6351,14.749 7.2001,14.401 L7.2001,4.226 Z" id="Fill-3" fill="#FFFFFF"></path>
                </g>
            </g>
        </g>
    </g>
</svg>