<?xml version="1.0" encoding="UTF-8"?>
<svg width="22px" height="12px" viewBox="0 0 22 12" version="1.1" xmlns="http://www.w3.org/2000/svg" xmlns:xlink="http://www.w3.org/1999/xlink">
    <!-- Generator: Sketch 53 (72520) - https://sketchapp.com -->
    <title>ic_peli_black</title>
    <desc>Created with Sketch.</desc>
    <g id="Symbols" stroke="none" stroke-width="1" fill="none" fill-rule="evenodd">
        <g id="Materiaalityyppi/Peli" transform="translate(-1.000000, -5.000000)">
            <g id="Hardware/ic_videogame_asset" transform="translate(0.000000, -1.000000)">
                <g id="ic_videogame_asset">
                    <polygon id="Bounds" points="0 0 0 24 24 24 24 0"></polygon>
                    <path d="M21,6 L3,6 C1.9,6 1,6.9 1,8 L1,16 C1,17.1 1.9,18 3,18 L21,18 C22.1,18 23,17.1 23,16 L23,8 C23,6.9 22.1,6 21,6 L21,6 Z M11,13 L8,13 L8,16 L6,16 L6,13 L3,13 L3,11 L6,11 L6,8 L8,8 L8,11 L11,11 L11,13 L11,13 Z M15.5,15 C14.67,15 14,14.33 14,13.5 C14,12.67 14.67,12 15.5,12 C16.33,12 17,12.67 17,13.5 C17,14.33 16.33,15 15.5,15 L15.5,15 Z M19.5,12 C18.67,12 18,11.33 18,10.5 C18,9.67 18.67,9 19.5,9 C20.33,9 21,9.67 21,10.5 C21,11.33 20.33,12 19.5,12 L19.5,12 Z" id="Icon" fill="#000000"></path>
                </g>
            </g>
        </g>
    </g>
</svg>