<?xml version="1.0" encoding="UTF-8"?>
<svg width="20px" height="22px" viewBox="0 0 20 22" version="1.1" xmlns="http://www.w3.org/2000/svg" xmlns:xlink="http://www.w3.org/1999/xlink">
    <!-- Generator: Sketch 53 (72520) - https://sketchapp.com -->
    <title>ic_roolipeli_black</title>
    <desc>Created with Sketch.</desc>
    <defs>
        <polygon id="path-1" points="0 0.3971 19.3779037 0.3971 19.3779037 22 0 22"></polygon>
    </defs>
    <g id="Symbols" stroke="none" stroke-width="1" fill="none" fill-rule="evenodd">
        <g id="Materiaalityyppi/Roolipeli" transform="translate(-2.000000, -2.000000)">
            <g id="ic_roolipeli_black">
                <rect id="Rectangle" x="0" y="0" width="24" height="24"></rect>
                <g id="Group-10" transform="translate(2.000000, 1.000000)">
                    <g id="Group-3" transform="translate(0.000000, 0.602800)">
                        <mask id="mask-2" fill="white">
                            <use xlink:href="#path-1"></use>
                        </mask>
                        <g id="Clip-2"></g>
                        <path d="M9.6888,2.3241 C5.9798,2.3241 2.6038,1.5931 0.0248,0.3971 C-0.3392,8.9781 3.3288,17.3811 6.2528,20.4681 C8.1898,22.5111 11.1878,22.5111 13.1248,20.4681 C16.0488,17.3811 19.7168,8.9781 19.3528,0.3971 C16.7738,1.5931 13.3978,2.3241 9.6888,2.3241" id="Fill-1" fill="#000000" mask="url(#mask-2)"></path>
                    </g>
                    <path d="M9.6888,16.4479 C7.6658,16.4479 5.8358,15.7209 4.4808,14.5529 C5.2688,17.1429 7.2938,18.9969 9.6888,18.9969 C12.0838,18.9969 14.1088,17.1429 14.8968,14.5529 C13.5418,15.7209 11.7118,16.4479 9.6888,16.4479" id="Fill-4" fill="#FFFFFF"></path>
                    <path d="M13.931,8.9942 C12.65,9.2222 11.575,9.8892 10.847,10.7812 C11.054,9.0532 12.127,7.6502 13.644,7.3802 C15.16,7.1092 16.652,8.0552 17.444,9.6062 C16.452,9.0192 15.213,8.7652 13.931,8.9942" id="Fill-6" fill="#FFFFFF"></path>
                    <path d="M5.5033,8.9942 C6.7853,9.2222 7.8603,9.8892 8.5883,10.7812 C8.3813,9.0532 7.3083,7.6502 5.7913,7.3802 C4.2743,7.1092 2.7823,8.0552 1.9913,9.6062 C2.9823,9.0192 4.2223,8.7652 5.5033,8.9942" id="Fill-8" fill="#FFFFFF"></path>
                </g>
            </g>
        </g>
    </g>
</svg>