<?xml version="1.0" encoding="UTF-8"?>
<svg width="22px" height="22px" viewBox="0 0 22 22" version="1.1" xmlns="http://www.w3.org/2000/svg" xmlns:xlink="http://www.w3.org/1999/xlink">
    <!-- Generator: sketchtool 52 (66869) - http://www.bohemiancoding.com/sketch -->
    <title>50C71CEA-7A78-4C81-8E1F-3B07FE907C25</title>
    <desc>Created with sketchtool.</desc>
    <g id="Page-1" stroke="none" stroke-width="1" fill="none" fill-rule="evenodd">
        <g id="CSC-Etusivu" transform="translate(-902.000000, -27.000000)">
            <g id="Group-15" transform="translate(702.000000, 25.000000)">
                <g id="Group-5" transform="translate(198.000000, 0.000000)">
                    <g id="ic_lisaa">
                        <g id="Icon-24px">
                            <polygon id="Shape" points="0 0 26 0 26 26 0 26"></polygon>
                            <path d="M14.0833333,7.58333333 L11.9166667,7.58333333 L11.9166667,11.9166667 L7.58333333,11.9166667 L7.58333333,14.0833333 L11.9166667,14.0833333 L11.9166667,18.4166667 L14.0833333,18.4166667 L14.0833333,14.0833333 L18.4166667,14.0833333 L18.4166667,11.9166667 L14.0833333,11.9166667 L14.0833333,7.58333333 L14.0833333,7.58333333 Z M13,2.16666667 C7.02,2.16666667 2.16666667,7.02 2.16666667,13 C2.16666667,18.98 7.02,23.8333333 13,23.8333333 C18.98,23.8333333 23.8333333,18.98 23.8333333,13 C23.8333333,7.02 18.98,2.16666667 13,2.16666667 L13,2.16666667 Z M13,21.6666667 C8.2225,21.6666667 4.33333333,17.7775 4.33333333,13 C4.33333333,8.2225 8.2225,4.33333333 13,4.33333333 C17.7775,4.33333333 21.6666667,8.2225 21.6666667,13 C21.6666667,17.7775 17.7775,21.6666667 13,21.6666667 L13,21.6666667 Z" id="Shape" fill="#FFFFFF"></path>
                        </g>
                    </g>
                </g>
            </g>
        </g>
    </g>
</svg>