<?xml version="1.0" encoding="UTF-8" standalone="no"?>
<!DOCTYPE svg PUBLIC "-//W3C//DTD SVG 1.1//EN" "http://www.w3.org/Graphics/SVG/1.1/DTD/svg11.dtd">
<svg width="100%" height="100%" viewBox="0 0 20 20" version="1.1" xmlns="http://www.w3.org/2000/svg" xmlns:xlink="http://www.w3.org/1999/xlink" xml:space="preserve" xmlns:serif="http://www.serif.com/" style="fill-rule:evenodd;clip-rule:evenodd;stroke-linejoin:round;stroke-miterlimit:2;">
    <g transform="matrix(1.11111,0,0,1.11111,-3.33333,-3.33333)">
        <g id="Symbols">
            <g id="Materiaalityyppi-Audio" serif:id="Materiaalityyppi/Audio">
                <g id="AV-ic_volume_up" serif:id="AV/ic_volume_up">
                    <g id="ic_volume_up">
                        <path id="Bounds" d="M0,0L24,0L24,24L0,24L0,0Z" style="fill:none;"/>
                        <path id="Icon" d="M3,9L3,15L7,15L12,20L12,4L7,9L3,9ZM16.5,12C16.5,10.23 15.48,8.71 14,7.97L14,16.02C15.48,15.29 16.5,13.77 16.5,12ZM14,3.23L14,5.29C16.89,6.15 19,8.83 19,12C19,15.17 16.89,17.85 14,18.71L14,20.77C18.01,19.86 21,16.28 21,12C21,7.72 18.01,4.14 14,3.23Z"/>
                    </g>
                </g>
            </g>
        </g>
    </g>
</svg>
