<?xml version="1.0" encoding="UTF-8" standalone="no"?>
<!DOCTYPE svg PUBLIC "-//W3C//DTD SVG 1.1//EN" "http://www.w3.org/Graphics/SVG/1.1/DTD/svg11.dtd">
<svg width="100%" height="100%" viewBox="0 0 20 20" version="1.1" xmlns="http://www.w3.org/2000/svg" xmlns:xlink="http://www.w3.org/1999/xlink" xml:space="preserve" xmlns:serif="http://www.serif.com/" style="fill-rule:evenodd;clip-rule:evenodd;stroke-linejoin:round;stroke-miterlimit:2;">
    <g transform="matrix(1,0,0,1,-2,-2)">
        <g id="Symbols">
            <g id="Materiaalityyppi-Blogi" serif:id="Materiaalityyppi/Blogi">
                <g id="ic_blogi_black">
                    <rect id="Rectangle" x="0" y="0" width="24" height="24" style="fill:none;"/>
                    <g id="Group-5" transform="matrix(1,0,0,1,2,2)">
                        <path id="Fill-1" d="M20,10C20,4.477 15.522,0 10,0C4.478,0 0,4.477 0,10C0,15.523 4.478,20 10,20C15.522,20 20,15.523 20,10"/>
                        <path id="Fill-3" d="M9.286,13.834C9.384,13.905 9.479,13.975 9.574,14.041C9.668,14.107 9.769,14.166 9.877,14.217C9.984,14.269 10.1,14.309 10.225,14.34C10.35,14.371 10.492,14.386 10.651,14.386C10.937,14.386 11.199,14.306 11.437,14.145C11.675,13.983 11.878,13.761 12.047,13.478C12.216,13.194 12.346,12.859 12.437,12.473C12.529,12.087 12.576,11.671 12.576,11.227C12.576,10.895 12.528,10.582 12.433,10.288C12.339,9.994 12.209,9.735 12.043,9.513C11.877,9.291 11.682,9.116 11.46,8.988C11.237,8.86 11.001,8.796 10.751,8.796C10.495,8.796 10.235,8.861 9.973,8.992C9.709,9.122 9.48,9.287 9.286,9.486L9.286,13.834ZM7.2,4.226L8.796,3.398L9.286,3.398L9.286,7.945C9.711,7.746 10.108,7.582 10.478,7.454C10.849,7.327 11.187,7.263 11.494,7.263C11.96,7.263 12.39,7.356 12.786,7.542C13.182,7.729 13.524,7.982 13.81,8.302C14.097,8.621 14.321,8.993 14.485,9.417C14.648,9.841 14.73,10.292 14.73,10.767C14.73,11.186 14.678,11.591 14.573,11.982C14.469,12.373 14.321,12.74 14.132,13.083C13.943,13.425 13.716,13.739 13.45,14.025C13.183,14.312 12.889,14.556 12.564,14.758C12.239,14.96 11.89,15.117 11.514,15.23C11.138,15.342 10.748,15.398 10.345,15.398C9.757,15.398 9.194,15.319 8.657,15.16C8.121,15.002 7.635,14.749 7.2,14.401L7.2,4.226Z" style="fill:white;"/>
                    </g>
                </g>
            </g>
        </g>
    </g>
</svg>
