<?xml version="1.0" encoding="UTF-8" standalone="no"?>
<!DOCTYPE svg PUBLIC "-//W3C//DTD SVG 1.1//EN" "http://www.w3.org/Graphics/SVG/1.1/DTD/svg11.dtd">
<svg width="100%" height="100%" viewBox="0 0 20 20" version="1.1" xmlns="http://www.w3.org/2000/svg" xmlns:xlink="http://www.w3.org/1999/xlink" xml:space="preserve" xmlns:serif="http://www.serif.com/" style="fill-rule:evenodd;clip-rule:evenodd;stroke-linejoin:round;stroke-miterlimit:2;">
    <g transform="matrix(0.833333,0,0,0.818182,0,0.181818)">
        <g id="Symbols">
            <g id="Materiaalityyppi-Esitys" serif:id="Materiaalityyppi/Esitys">
                <g id="ic_esitys_black">
                    <rect id="Rectangle" x="0" y="0" width="24" height="24" style="fill:none;"/>
                    <path id="Fill-1" d="M3.1,14.706L3.072,3.049L20.975,3.049L21.003,14.706L3.1,14.706ZM24.047,2.025C24.047,1.459 23.588,1 23.023,1L1.023,1C0.458,1.001 0,1.459 0,2.025C0,2.59 0.458,3.049 1.023,3.049L1.052,14.754C1.052,15.854 1.952,16.754 3.052,16.754L8.727,16.754L6.195,21.49C5.929,21.989 6.117,22.61 6.616,22.876C6.769,22.958 6.934,22.998 7.098,22.998C7.463,22.998 7.817,22.801 8.002,22.456L11.05,16.754L13.053,16.754L16.101,22.456C16.286,22.801 16.64,22.998 17.006,22.998C17.169,22.998 17.334,22.958 17.488,22.876C17.986,22.609 18.175,21.989 17.908,21.49L15.376,16.754L21.052,16.754C22.151,16.754 23.052,15.854 23.052,14.754L23.023,3.049C23.589,3.049 24.047,2.591 24.047,2.025Z"/>
                    <path id="Fill-4" d="M10,6L10,11.478L14.304,8.739L10,6Z"/>
                </g>
            </g>
        </g>
    </g>
</svg>
