<?xml version="1.0" encoding="UTF-8" standalone="no"?>
<!DOCTYPE svg PUBLIC "-//W3C//DTD SVG 1.1//EN" "http://www.w3.org/Graphics/SVG/1.1/DTD/svg11.dtd">
<svg width="100%" height="100%" viewBox="0 0 20 20" version="1.1" xmlns="http://www.w3.org/2000/svg" xmlns:xlink="http://www.w3.org/1999/xlink" xml:space="preserve" xmlns:serif="http://www.serif.com/" style="fill-rule:evenodd;clip-rule:evenodd;stroke-linejoin:round;stroke-miterlimit:2;">
    <g transform="matrix(0.882353,0,0,0.909091,-1.02941,-0.909091)">
        <g id="Symbols">
            <g id="Materiaalityyppi-Kokeellinen" serif:id="Materiaalityyppi/Kokeellinen">
                <g id="ic_kokeellinen_black">
                    <path id="Shape" d="M0,0L24,0L24,24L0,24L0,0Z" style="fill:none;"/>
                    <g id="Group-3" transform="matrix(1,0,0,1,4,1)">
                        <path id="Fill-1" d="M3.849,15.001L7.099,7.2L7.099,2L9.099,2L9.099,7.2L12.349,15.001L3.849,15.001ZM11.099,6.8L11.099,2C11.651,2 12.099,1.553 12.099,1C12.099,0.447 11.651,0 11.099,0L5.099,0C4.547,0 4.099,0.447 4.099,1C4.099,1.553 4.547,2 5.099,2L5.099,6.8L0,19.038L1.481,22L14.717,22L16.198,19.038L11.099,6.8Z"/>
                    </g>
                </g>
            </g>
        </g>
    </g>
</svg>
