<?xml version="1.0" encoding="UTF-8" standalone="no"?>
<!DOCTYPE svg PUBLIC "-//W3C//DTD SVG 1.1//EN" "http://www.w3.org/Graphics/SVG/1.1/DTD/svg11.dtd">
<svg width="100%" height="100%" viewBox="0 0 20 20" version="1.1" xmlns="http://www.w3.org/2000/svg" xmlns:xlink="http://www.w3.org/1999/xlink" xml:space="preserve" xmlns:serif="http://www.serif.com/" style="fill-rule:evenodd;clip-rule:evenodd;stroke-linejoin:round;stroke-miterlimit:2;">
    <g transform="matrix(0.857143,0,0,0.869565,-0.285714,-0.869565)">
        <g id="Symbols">
            <g id="Materiaalityyppi-Kartta" serif:id="Materiaalityyppi/Kartta">
                <g id="ic_kartta_black">
                    <path id="Shape" d="M0,0L24,0L24,24L0,24L0,0Z" style="fill:none;"/>
                    <g id="Group-6" transform="matrix(1,0,0,1,5,0)">
                        <g id="Group-3" transform="matrix(1,0,0,1,0,0.1752)">
                            <path id="Fill-1" d="M6.79,11.47C4.813,11.47 3.21,9.865 3.21,7.885C3.21,5.905 4.813,4.299 6.79,4.299C8.768,4.299 10.37,5.905 10.37,7.885C10.37,9.865 8.768,11.47 6.79,11.47M6.79,0.824C3.04,0.824 -0.001,3.869 -0.001,7.625C-0.001,14.038 6.79,20.904 6.79,20.904C6.79,20.904 13.581,14.038 13.581,7.625C13.581,3.869 10.54,0.824 6.79,0.824"/>
                        </g>
                        <path id="Fill-4" d="M9.72,19.198C9.49,19.496 9.271,19.768 9.062,20.021C9.936,20.302 10.345,20.692 10.345,20.935C10.345,21.428 8.928,22.175 6.791,22.175C4.654,22.175 3.237,21.428 3.237,20.935C3.237,20.692 3.646,20.302 4.519,20.021C4.311,19.768 4.093,19.496 3.862,19.198C2.838,19.605 2.237,20.223 2.237,20.935C2.237,22.389 4.582,23.175 6.791,23.175C8.999,23.175 11.345,22.389 11.345,20.935C11.345,20.223 10.743,19.605 9.72,19.198"/>
                    </g>
                </g>
            </g>
        </g>
    </g>
</svg>
